<?xml version="1.0" encoding="utf-8"?>
<!-- Generator: Adobe Illustrator 26.3.1, SVG Export Plug-In . SVG Version: 6.00 Build 0)  -->
<svg version="1.1" id="레이어_1" xmlns="http://www.w3.org/2000/svg" xmlns:xlink="http://www.w3.org/1999/xlink" x="0px"
	 y="0px" viewBox="0 0 18 102" style="enable-background:new 0 0 18 102;" xml:space="preserve">
<style type="text/css">
	.st0{fill:#FFAD1D;}
	.st1{fill-rule:evenodd;clip-rule:evenodd;fill:#FFAD1D;}
</style>
<path class="st0" d="M11.2,25.3V28c2.2-0.3,3.8-2.3,3.8-4.9c0-3-2.1-5.4-5.8-5.4c-3.6,0-5.8,2.2-5.8,5.4c0,2.9,1.8,5,4.8,5h1.5v-4.9
	h-2v2.3c-1.2,0-2-0.9-2-2.4c0-1.7,1.3-2.7,3.5-2.7c2.2,0,3.5,1.1,3.5,2.7C12.7,24.3,12.1,25,11.2,25.3L11.2,25.3z M9.2,40.3
	c3.7,0,5.8-2.4,5.8-5.4c0-3-2.1-5.4-5.8-5.4c-3.7,0-5.8,2.3-5.8,5.4C3.4,37.9,5.5,40.3,9.2,40.3z M9.2,32.2c2.2,0,3.5,1,3.5,2.7
	s-1.2,2.7-3.5,2.7s-3.5-1-3.5-2.7C5.7,33.3,6.9,32.2,9.2,32.2L9.2,32.2z M12.7,45v3.4H3.5v2.6h9.1v3.4h2.2V45
	C14.8,45,12.7,45,12.7,45z M9.2,65.9c3.7,0,5.8-2.4,5.8-5.4c0-3-2.1-5.4-5.8-5.4c-3.7,0-5.8,2.3-5.8,5.4C3.4,63.6,5.5,65.9,9.2,65.9
	z M9.2,57.9c2.2,0,3.5,1,3.5,2.7c0,1.7-1.2,2.7-3.5,2.7s-3.5-1-3.5-2.7S6.9,57.9,9.2,57.9z M12.7,70.7v3.4H3.5v2.6h9.1v3.4h2.2v-9.5
	C14.8,70.7,12.7,70.7,12.7,70.7z M9.2,91.6c3.7,0,5.8-2.4,5.8-5.4c0-3.1-2.1-5.4-5.8-5.4c-3.7,0-5.8,2.3-5.8,5.4
	C3.4,89.3,5.5,91.6,9.2,91.6z M9.2,83.6c2.2,0,3.5,1,3.5,2.7s-1.2,2.7-3.5,2.7s-3.5-1-3.5-2.7S6.9,83.6,9.2,83.6z M3.5,93.2v2.7h3.5
	v1.9c0,2.6,1.5,4.2,3.9,4.2c2.3,0,3.9-1.6,3.9-4.1v-4.6C14.8,93.2,3.5,93.2,3.5,93.2z M9.2,95.8h3.5v1.4c0,1.3-0.7,1.9-1.7,1.9
	c-1.1,0-1.8-0.7-1.8-1.9L9.2,95.8L9.2,95.8z"/>
<path class="st1" d="M1.4,9.6c-0.5-0.5-0.5-1.3,0-1.8l6.8-7.4c0.4-0.5,1.1-0.5,1.6-0.1c0,0,0.1,0.1,0.1,0.1l6.8,7.4
	c0.5,0.5,0.5,1.3,0,1.8c-0.5,0.5-1.2,0.5-1.7,0L9,3.1L3,9.6C2.6,10.1,1.8,10.1,1.4,9.6z"/>
</svg>
